<svg id="visual" viewBox="0 0 960 540" width="960" height="540" xmlns="http://www.w3.org/2000/svg" xmlns:xlink="http://www.w3.org/1999/xlink" version="1.1"><rect x="0" y="0" width="960" height="540" fill="#161616"></rect><path d="M0 214L74 233L148 296L222 281L295 307L369 286L443 225L517 299L591 295L665 312L738 297L812 219L886 256L960 258L960 541L886 541L812 541L738 541L665 541L591 541L517 541L443 541L369 541L295 541L222 541L148 541L74 541L0 541Z" fill="#2d2b2a"></path><path d="M0 315L74 266L148 276L222 285L295 332L369 256L443 253L517 263L591 340L665 257L738 270L812 270L886 316L960 291L960 541L886 541L812 541L738 541L665 541L591 541L517 541L443 541L369 541L295 541L222 541L148 541L74 541L0 541Z" fill="#282625"></path><path d="M0 305L74 328L148 327L222 365L295 333L369 326L443 295L517 327L591 298L665 354L738 346L812 293L886 348L960 289L960 541L886 541L812 541L738 541L665 541L591 541L517 541L443 541L369 541L295 541L222 541L148 541L74 541L0 541Z" fill="#232120"></path><path d="M0 363L74 362L148 366L222 360L295 374L369 351L443 388L517 361L591 395L665 375L738 353L812 367L886 385L960 354L960 541L886 541L812 541L738 541L665 541L591 541L517 541L443 541L369 541L295 541L222 541L148 541L74 541L0 541Z" fill="#1d1b1a"></path><path d="M0 371L74 399L148 376L222 412L295 369L369 368L443 374L517 412L591 398L665 424L738 394L812 407L886 402L960 381L960 541L886 541L812 541L738 541L665 541L591 541L517 541L443 541L369 541L295 541L222 541L148 541L74 541L0 541Z" fill="#191615"></path><path d="M0 449L74 445L148 435L222 455L295 445L369 450L443 429L517 440L591 415L665 415L738 442L812 419L886 445L960 421L960 541L886 541L812 541L738 541L665 541L591 541L517 541L443 541L369 541L295 541L222 541L148 541L74 541L0 541Z" fill="#13110f"></path><path d="M0 485L74 456L148 476L222 482L295 469L369 457L443 457L517 443L591 474L665 476L738 460L812 480L886 440L960 488L960 541L886 541L812 541L738 541L665 541L591 541L517 541L443 541L369 541L295 541L222 541L148 541L74 541L0 541Z" fill="#0c0907"></path><path d="M0 504L74 489L148 511L222 485L295 510L369 478L443 496L517 506L591 485L665 488L738 486L812 507L886 479L960 479L960 541L886 541L812 541L738 541L665 541L591 541L517 541L443 541L369 541L295 541L222 541L148 541L74 541L0 541Z" fill="#000000"></path></svg>